<svg width="1599" height="430" viewBox="0 0 1599 430" fill="none" xmlns="http://www.w3.org/2000/svg">
<path d="M-1 236L52.3333 251.782C105.667 266.975 212.333 299.425 319 314.617C425.667 330.4 532.333 330.4 639 322.582C745.667 314.175 852.333 299.425 959 322.582C1065.67 346.625 1172.33 408.575 1279 424.8C1385.67 441.025 1492.33 408.575 1545.67 393.382L1599 377.6V0H1545.67C1492.33 0 1385.67 0 1279 0C1172.33 0 1065.67 0 959 0C852.333 0 745.667 0 639 0C532.333 0 425.667 0 319 0C212.333 0 105.667 0 52.3333 0H-1V236Z" fill="#006666"/>
</svg>
