<svg width="317" height="37" viewBox="0 0 317 37" fill="none" xmlns="http://www.w3.org/2000/svg">
<path d="M16.5469 33.0234V28.8984L3.98438 22.8047L16.5469 16.7109V12.5859L0.09375 20.7891V24.8203L16.5469 33.0234ZM124.547 36.6094C122.188 36.6094 119.812 36.3281 117.422 35.7656C115.031 35.2031 112.969 34.4375 111.234 33.4688L113.625 28.3828C114.953 29.0859 116.539 29.7266 118.383 30.3047C120.242 30.8672 122.242 31.1484 124.383 31.1484C125.805 31.1484 126.875 30.9453 127.594 30.5391C128.328 30.1328 128.82 29.5703 129.07 28.8516C129.336 28.1172 129.469 27.2812 129.469 26.3438C129.469 25.7031 129.359 25.1172 129.141 24.5859C128.922 24.0391 128.469 23.5391 127.781 23.0859C127.109 22.6172 126.078 22.1797 124.688 21.7734L118.781 20.0391C116.906 19.4766 115.445 18.7266 114.398 17.7891C113.367 16.8359 112.641 15.7266 112.219 14.4609C111.812 13.1953 111.609 11.8281 111.609 10.3594C111.609 8.20312 112.133 6.42188 113.18 5.01562C114.242 3.60938 115.68 2.5625 117.492 1.875C119.32 1.17188 121.367 0.820312 123.633 0.820312C125.914 0.820312 128.016 1.03906 129.938 1.47656C131.859 1.91406 133.617 2.59375 135.211 3.51562L133.242 8.41406C131.961 7.80469 130.562 7.29688 129.047 6.89062C127.531 6.48438 125.93 6.28125 124.242 6.28125C122.477 6.28125 121.07 6.55469 120.023 7.10156C118.977 7.63281 118.453 8.64062 118.453 10.125C118.453 11.3125 118.758 12.2266 119.367 12.8672C119.992 13.5078 121.18 14.0938 122.93 14.625L128.812 16.3828C131.141 17.0859 132.891 18.2031 134.062 19.7344C135.234 21.2656 135.82 23.3906 135.82 26.1094C135.82 28.0625 135.43 29.8359 134.648 31.4297C133.867 33.0078 132.648 34.2656 130.992 35.2031C129.336 36.1406 127.188 36.6094 124.547 36.6094ZM143.297 27.8672V14.8828H139.969V10.8281H143.484L144.07 2.74219H149.672V10.8281H155.648V14.8828H149.672V27.3984C149.672 28.9609 150.008 30.0469 150.68 30.6562C151.367 31.25 152.672 31.5469 154.594 31.5469H155.812L155.578 36.2812H153.844C151.312 36.2812 149.273 36.0312 147.727 35.5312C146.18 35.0312 145.055 34.1719 144.352 32.9531C143.648 31.7188 143.297 30.0234 143.297 27.8672ZM167.414 36.5391C165.258 36.5391 163.5 35.9141 162.141 34.6641C160.797 33.4141 160.125 31.75 160.125 29.6719C160.125 28.4844 160.367 27.4297 160.852 26.5078C161.336 25.5859 162.219 24.7344 163.5 23.9531C164.781 23.1562 166.617 22.3828 169.008 21.6328C170.961 21.0078 172.398 20.4297 173.32 19.8984C174.258 19.3672 174.727 18.6641 174.727 17.7891C174.727 16.7734 174.422 16.0156 173.812 15.5156C173.219 15 172.203 14.7422 170.766 14.7422C169.172 14.7422 168.117 15.0547 167.602 15.6797C167.102 16.3047 166.852 17.1016 166.852 18.0703V19.0547H160.875V18.3047C160.875 15.8672 161.688 13.9219 163.312 12.4688C164.938 11.0156 167.469 10.2891 170.906 10.2891C173.422 10.2891 175.414 10.6406 176.883 11.3438C178.352 12.0469 179.406 13.0391 180.047 14.3203C180.688 15.5859 181.008 17.0859 181.008 18.8203V28.7812C181.008 29.9219 181.148 30.6719 181.43 31.0312C181.727 31.375 182.266 31.5469 183.047 31.5469L182.789 36.1875H181.453C179.703 36.1875 178.344 35.9453 177.375 35.4609C176.406 34.9766 175.695 34.2266 175.242 33.2109C174.57 34.1016 173.555 34.8828 172.195 35.5547C170.852 36.2109 169.258 36.5391 167.414 36.5391ZM169.547 32.2969C170.328 32.2969 171.242 32.0781 172.289 31.6406C173.336 31.2031 174.148 30.5312 174.727 29.625V23.25C174.305 23.5938 173.633 23.9766 172.711 24.3984C171.789 24.8047 170.797 25.2031 169.734 25.5938C168.344 26.1094 167.43 26.6797 166.992 27.3047C166.555 27.9297 166.336 28.6016 166.336 29.3203C166.336 30.3359 166.633 31.0859 167.227 31.5703C167.82 32.0547 168.594 32.2969 169.547 32.2969ZM189.844 27.8672V14.8828H186.516V10.8281H190.031L190.617 2.74219H196.219V10.8281H202.195V14.8828H196.219V27.3984C196.219 28.9609 196.555 30.0469 197.227 30.6562C197.914 31.25 199.219 31.5469 201.141 31.5469H202.359L202.125 36.2812H200.391C197.859 36.2812 195.82 36.0312 194.273 35.5312C192.727 35.0312 191.602 34.1719 190.898 32.9531C190.195 31.7188 189.844 30.0234 189.844 27.8672ZM206.953 10.8281H213.305V36H206.953V10.8281ZM206.906 0.492188H213.328V6.70312H206.906V0.492188ZM230.062 36.5391C226.094 36.5391 223.281 35.8047 221.625 34.3359C219.969 32.8672 219.141 30.8828 219.141 28.3828V18.4688C219.141 15.9062 220.094 13.9062 222 12.4688C223.922 11.0156 226.609 10.2891 230.062 10.2891C233.5 10.2891 236.18 11.0156 238.102 12.4688C240.023 13.9062 240.984 15.9062 240.984 18.4688V28.3828C240.984 30.0391 240.641 31.4844 239.953 32.7188C239.266 33.9375 238.125 34.8828 236.531 35.5547C234.953 36.2109 232.797 36.5391 230.062 36.5391ZM230.062 32.1094C231.422 32.1094 232.516 31.8594 233.344 31.3594C234.188 30.8438 234.609 29.9453 234.609 28.6641V18.1875C234.609 16.9062 234.211 16.0156 233.414 15.5156C232.617 15 231.5 14.7422 230.062 14.7422C228.688 14.7422 227.586 15 226.758 15.5156C225.93 16.0156 225.516 16.9062 225.516 18.1875V28.6641C225.516 29.9453 225.906 30.8438 226.688 31.3594C227.469 31.8594 228.594 32.1094 230.062 32.1094ZM247.641 10.8281H254.016V13.0547C254.984 12.2266 256.055 11.5547 257.227 11.0391C258.398 10.5234 259.898 10.2656 261.727 10.2656C263.617 10.2656 265.148 10.6172 266.32 11.3203C267.492 12.0078 268.352 12.9297 268.898 14.0859C269.445 15.2422 269.719 16.5312 269.719 17.9531V36H263.344V18.3047C263.344 17.4141 263.109 16.7344 262.641 16.2656C262.188 15.7969 261.617 15.4766 260.93 15.3047C260.258 15.1328 259.586 15.0469 258.914 15.0469C258.148 15.0469 257.391 15.1875 256.641 15.4688C255.891 15.75 255.266 16.1641 254.766 16.7109C254.266 17.2578 254.016 17.9453 254.016 18.7734V36H247.641V10.8281ZM289.102 0.46875H294.797L281.461 36H275.766L289.102 0.46875ZM300.375 33.0234V28.8984L312.938 22.8047L300.375 16.7109V12.5859L316.828 20.7891V24.8203L300.375 33.0234Z" fill="#80ADE9"/>
<path d="M24.0938 36V1.40625H39.0938C42.4375 1.40625 45.0312 1.94531 46.875 3.02344C48.7188 4.08594 50.0078 5.53125 50.7422 7.35938C51.4766 9.17188 51.8438 11.2109 51.8438 13.4766V24.0938C51.8438 26.3906 51.4531 28.4375 50.6719 30.2344C49.9062 32.0312 48.6016 33.4453 46.7578 34.4766C44.9141 35.4922 42.3672 36 39.1172 36H24.0938ZM31.0547 30.5859H38.5078C40.9609 30.5859 42.6328 30.1328 43.5234 29.2266C44.4297 28.3203 44.8828 26.9062 44.8828 24.9844V12.5625C44.8828 10.6875 44.4219 9.26562 43.5 8.29688C42.5938 7.3125 40.9297 6.82031 38.5078 6.82031H31.0547V30.5859ZM58.5 28.125V18.3047C58.5 15.7422 59.4688 13.7656 61.4062 12.375C63.3594 10.9844 65.9688 10.2891 69.2344 10.2891C73.1094 10.2891 75.8594 11.0312 77.4844 12.5156C79.125 14 79.9453 16.0078 79.9453 18.5391V24.6328H64.875V28.7344C64.875 30.2188 65.2578 31.1562 66.0234 31.5469C66.7891 31.9219 67.9297 32.1094 69.4453 32.1094C71.2578 32.1094 72.4688 31.8594 73.0781 31.3594C73.7031 30.8438 74.0156 29.8125 74.0156 28.2656H79.9219C79.9219 31.375 79.0469 33.5312 77.2969 34.7344C75.5469 35.9375 72.8906 36.5391 69.3281 36.5391C67.2812 36.5391 65.4375 36.2891 63.7969 35.7891C62.1562 35.2734 60.8594 34.4062 59.9062 33.1875C58.9688 31.9688 58.5 30.2812 58.5 28.125ZM73.9219 20.7422V17.7891C73.9219 16.8516 73.7188 16.1719 73.3125 15.75C72.9219 15.3125 72.3828 15.0391 71.6953 14.9297C71.0234 14.8047 70.2578 14.7422 69.3984 14.7422C68.1172 14.7422 67.0391 14.9375 66.1641 15.3281C65.3047 15.7031 64.875 16.5625 64.875 17.9062V20.7422H73.9219ZM83.3438 10.8281H89.6953L95.6719 29.7656L101.578 10.8281H107.602L99.0703 36H92.2969L83.3438 10.8281Z" fill="white"/>
</svg>
