<svg width="1600" height="300" viewBox="0 0 1600 300" fill="none" xmlns="http://www.w3.org/2000/svg">
<path d="M0 150L53.3333 160.031C106.667 169.687 213.333 190.313 320 199.969C426.667 210 533.333 210 640 205.031C746.667 199.687 853.333 190.312 960 205.031C1066.67 220.312 1173.33 259.688 1280 270C1386.67 280.312 1493.33 259.688 1546.67 250.031L1600 240V0H1546.67C1493.33 0 1386.67 0 1280 0C1173.33 0 1066.67 0 960 0C853.333 0 746.667 0 640 0C533.333 0 426.667 0 320 0C213.333 0 106.667 0 53.3333 0H0V150Z" fill="#006666"/>
</svg>
