<svg width="1440" height="271" viewBox="0 0 1440 271" fill="none" xmlns="http://www.w3.org/2000/svg">
<path d="M0 149.002L48.0667 158.966C96.1333 168.558 192.267 189.046 288.4 198.638C384.533 208.603 480.667 208.603 576.8 203.667C672.933 198.359 769.067 189.046 865.2 203.667C961.333 218.847 1057.47 257.96 1153.6 268.204C1249.73 278.447 1345.87 257.96 1393.93 248.368L1442 238.403V0H1393.93C1345.87 0 1249.73 0 1153.6 0C1057.47 0 961.333 0 865.2 0C769.067 0 672.933 0 576.8 0C480.667 0 384.533 0 288.4 0C192.267 0 96.1333 0 48.0667 0H0V149.002Z" fill="#006666"/>
</svg>
