<svg width="483" height="50" viewBox="0 0 483 50" fill="none" xmlns="http://www.w3.org/2000/svg">
<path d="M0.96875 0.6875H12.2656V4.46094H7.36719V36.3125H12.2656V40.0859H0.96875V0.6875ZM471.359 36.3125H476.281V4.46094H471.359V0.6875H482.656V40.0859H471.359V36.3125Z" fill="#DF992F"/>
<path d="M16.6719 3.40625H24.125L33.2656 31.3672L42.125 3.40625H49.5781L37.3906 38H28.9531L16.6719 3.40625ZM53.4219 12.8281H59.7734V38H53.4219V12.8281ZM53.375 2.49219H59.7969V8.70312H53.375V2.49219ZM65.2344 36.5703L66.5234 32.2344C67.8672 32.8125 69.2734 33.2734 70.7422 33.6172C72.2266 33.9453 73.5859 34.1094 74.8203 34.1094C75.9766 34.1094 76.8359 33.8359 77.3984 33.2891C77.9609 32.7266 78.2422 31.9609 78.2422 30.9922C78.2422 30.2578 78.0781 29.6875 77.75 29.2812C77.4375 28.8594 76.8906 28.5234 76.1094 28.2734L70.5781 26.5391C68.5938 25.9141 67.2266 24.9922 66.4766 23.7734C65.7422 22.5547 65.375 21.1016 65.375 19.4141C65.375 17.0078 66.2188 15.2188 67.9062 14.0469C69.6094 12.875 71.7812 12.2891 74.4219 12.2891C76.5781 12.2891 78.4062 12.5156 79.9062 12.9688C81.4062 13.4219 82.6094 13.9062 83.5156 14.4219L82.0156 18.3828C81.5312 18.1172 80.8906 17.8594 80.0938 17.6094C79.2969 17.3594 78.4453 17.1562 77.5391 17C76.6484 16.8281 75.8047 16.7422 75.0078 16.7422C73.6641 16.7422 72.7422 16.9766 72.2422 17.4453C71.7422 17.9141 71.4922 18.5625 71.4922 19.3906C71.4922 19.9219 71.6172 20.3906 71.8672 20.7969C72.1172 21.1875 72.5625 21.4844 73.2031 21.6875L78.4062 23.3281C80.5312 24 82.0078 24.9375 82.8359 26.1406C83.6641 27.3438 84.0781 28.9297 84.0781 30.8984C84.0781 33.0234 83.3281 34.8281 81.8281 36.3125C80.3281 37.7969 78.0703 38.5391 75.0547 38.5391C72.9297 38.5391 71.0859 38.375 69.5234 38.0469C67.9766 37.7344 66.5469 37.2422 65.2344 36.5703ZM97.3672 38.5391C94.9609 38.5391 93.0547 37.8438 91.6484 36.4531C90.2578 35.0625 89.5625 33.3047 89.5625 31.1797V12.8281H95.9375V30.1484C95.9375 31.0234 96.1562 31.7266 96.5938 32.2578C97.0312 32.7734 97.5781 33.1484 98.2344 33.3828C98.8906 33.6172 99.5469 33.7344 100.203 33.7344C100.984 33.7344 101.758 33.6016 102.523 33.3359C103.289 33.0703 103.922 32.6484 104.422 32.0703C104.938 31.4922 105.195 30.7344 105.195 29.7969V12.8281H111.57V38H105.57L105.383 35.2344C104.883 36.2812 103.859 37.0938 102.312 37.6719C100.766 38.25 99.1172 38.5391 97.3672 38.5391ZM125.258 38.5391C123.102 38.5391 121.344 37.9141 119.984 36.6641C118.641 35.4141 117.969 33.75 117.969 31.6719C117.969 30.4844 118.211 29.4297 118.695 28.5078C119.18 27.5859 120.062 26.7344 121.344 25.9531C122.625 25.1562 124.461 24.3828 126.852 23.6328C128.805 23.0078 130.242 22.4297 131.164 21.8984C132.102 21.3672 132.57 20.6641 132.57 19.7891C132.57 18.7734 132.266 18.0156 131.656 17.5156C131.062 17 130.047 16.7422 128.609 16.7422C127.016 16.7422 125.961 17.0547 125.445 17.6797C124.945 18.3047 124.695 19.1016 124.695 20.0703V21.0547H118.719V20.3047C118.719 17.8672 119.531 15.9219 121.156 14.4688C122.781 13.0156 125.312 12.2891 128.75 12.2891C131.266 12.2891 133.258 12.6406 134.727 13.3438C136.195 14.0469 137.25 15.0391 137.891 16.3203C138.531 17.5859 138.852 19.0859 138.852 20.8203V30.7812C138.852 31.9219 138.992 32.6719 139.273 33.0312C139.57 33.375 140.109 33.5469 140.891 33.5469L140.633 38.1875H139.297C137.547 38.1875 136.188 37.9453 135.219 37.4609C134.25 36.9766 133.539 36.2266 133.086 35.2109C132.414 36.1016 131.398 36.8828 130.039 37.5547C128.695 38.2109 127.102 38.5391 125.258 38.5391ZM127.391 34.2969C128.172 34.2969 129.086 34.0781 130.133 33.6406C131.18 33.2031 131.992 32.5312 132.57 31.625V25.25C132.148 25.5938 131.477 25.9766 130.555 26.3984C129.633 26.8047 128.641 27.2031 127.578 27.5938C126.188 28.1094 125.273 28.6797 124.836 29.3047C124.398 29.9297 124.18 30.6016 124.18 31.3203C124.18 32.3359 124.477 33.0859 125.07 33.5703C125.664 34.0547 126.438 34.2969 127.391 34.2969ZM146.703 29.7266V2.49219H153.078V29.6328C153.078 31.0078 153.398 32.0078 154.039 32.6328C154.695 33.2422 155.875 33.5469 157.578 33.5469H158.375L157.883 38.2812H155.211C152.414 38.2812 150.297 37.6484 148.859 36.3828C147.422 35.1016 146.703 32.8828 146.703 29.7266ZM161.094 38L172.484 3.40625H181.719L193.25 38H185.867L183.945 31.4141H170.352L168.359 38H161.094ZM171.992 26.0234H182.352L177.266 8.60938L171.992 26.0234ZM198.641 12.8281H205.016V15.0547C205.984 14.2266 207.055 13.5547 208.227 13.0391C209.398 12.5234 210.898 12.2656 212.727 12.2656C214.617 12.2656 216.148 12.6172 217.32 13.3203C218.492 14.0078 219.352 14.9297 219.898 16.0859C220.445 17.2422 220.719 18.5312 220.719 19.9531V38H214.344V20.3047C214.344 19.4141 214.109 18.7344 213.641 18.2656C213.188 17.7969 212.617 17.4766 211.93 17.3047C211.258 17.1328 210.586 17.0469 209.914 17.0469C209.148 17.0469 208.391 17.1875 207.641 17.4688C206.891 17.75 206.266 18.1641 205.766 18.7109C205.266 19.2578 205.016 19.9453 205.016 20.7734V38H198.641V12.8281ZM234.195 38.5391C232.039 38.5391 230.281 37.9141 228.922 36.6641C227.578 35.4141 226.906 33.75 226.906 31.6719C226.906 30.4844 227.148 29.4297 227.633 28.5078C228.117 27.5859 229 26.7344 230.281 25.9531C231.562 25.1562 233.398 24.3828 235.789 23.6328C237.742 23.0078 239.18 22.4297 240.102 21.8984C241.039 21.3672 241.508 20.6641 241.508 19.7891C241.508 18.7734 241.203 18.0156 240.594 17.5156C240 17 238.984 16.7422 237.547 16.7422C235.953 16.7422 234.898 17.0547 234.383 17.6797C233.883 18.3047 233.633 19.1016 233.633 20.0703V21.0547H227.656V20.3047C227.656 17.8672 228.469 15.9219 230.094 14.4688C231.719 13.0156 234.25 12.2891 237.688 12.2891C240.203 12.2891 242.195 12.6406 243.664 13.3438C245.133 14.0469 246.188 15.0391 246.828 16.3203C247.469 17.5859 247.789 19.0859 247.789 20.8203V30.7812C247.789 31.9219 247.93 32.6719 248.211 33.0312C248.508 33.375 249.047 33.5469 249.828 33.5469L249.57 38.1875H248.234C246.484 38.1875 245.125 37.9453 244.156 37.4609C243.188 36.9766 242.477 36.2266 242.023 35.2109C241.352 36.1016 240.336 36.8828 238.977 37.5547C237.633 38.2109 236.039 38.5391 234.195 38.5391ZM236.328 34.2969C237.109 34.2969 238.023 34.0781 239.07 33.6406C240.117 33.2031 240.93 32.5312 241.508 31.625V25.25C241.086 25.5938 240.414 25.9766 239.492 26.3984C238.57 26.8047 237.578 27.2031 236.516 27.5938C235.125 28.1094 234.211 28.6797 233.773 29.3047C233.336 29.9297 233.117 30.6016 233.117 31.3203C233.117 32.3359 233.414 33.0859 234.008 33.5703C234.602 34.0547 235.375 34.2969 236.328 34.2969ZM255.641 29.7266V2.49219H262.016V29.6328C262.016 31.0078 262.336 32.0078 262.977 32.6328C263.633 33.2422 264.812 33.5469 266.516 33.5469H267.312L266.82 38.2812H264.148C261.352 38.2812 259.234 37.6484 257.797 36.3828C256.359 35.1016 255.641 32.8828 255.641 29.7266ZM282.219 38.5391C278.25 38.5391 275.438 37.8047 273.781 36.3359C272.125 34.8672 271.297 32.8828 271.297 30.3828V20.4688C271.297 17.9062 272.25 15.9062 274.156 14.4688C276.078 13.0156 278.766 12.2891 282.219 12.2891C285.656 12.2891 288.336 13.0156 290.258 14.4688C292.18 15.9062 293.141 17.9062 293.141 20.4688V30.3828C293.141 32.0391 292.797 33.4844 292.109 34.7188C291.422 35.9375 290.281 36.8828 288.688 37.5547C287.109 38.2109 284.953 38.5391 282.219 38.5391ZM282.219 34.1094C283.578 34.1094 284.672 33.8594 285.5 33.3594C286.344 32.8438 286.766 31.9453 286.766 30.6641V20.1875C286.766 18.9062 286.367 18.0156 285.57 17.5156C284.773 17 283.656 16.7422 282.219 16.7422C280.844 16.7422 279.742 17 278.914 17.5156C278.086 18.0156 277.672 18.9062 277.672 20.1875V30.6641C277.672 31.9453 278.062 32.8438 278.844 33.3594C279.625 33.8594 280.75 34.1094 282.219 34.1094ZM309.5 48.3359C307.938 48.3359 306.375 48.2188 304.812 47.9844C303.266 47.7656 302.055 47.4453 301.18 47.0234L302.492 42.6875C303.68 43.0156 304.859 43.2578 306.031 43.4141C307.219 43.5859 308.297 43.6719 309.266 43.6719C311.094 43.6719 312.422 43.2734 313.25 42.4766C314.078 41.6953 314.492 40.4375 314.492 38.7031V35.9375C313.742 36.375 312.844 36.7031 311.797 36.9219C310.75 37.1406 309.742 37.25 308.773 37.25C305.742 37.25 303.344 36.5625 301.578 35.1875C299.828 33.8125 298.953 31.8906 298.953 29.4219V20.3984C298.953 18.9609 299.258 17.625 299.867 16.3906C300.477 15.1562 301.484 14.1641 302.891 13.4141C304.297 12.6641 306.18 12.2891 308.539 12.2891C309.93 12.2891 311.258 12.5234 312.523 12.9922C313.789 13.4453 314.812 13.9922 315.594 14.6328L316.133 12.8047H320.867V38.2812C320.867 41.3906 319.984 43.8438 318.219 45.6406C316.453 47.4375 313.547 48.3359 309.5 48.3359ZM309.828 33.0078C310.906 33.0078 311.844 32.8984 312.641 32.6797C313.438 32.4609 314.055 32.1953 314.492 31.8828V18.5C314.492 18.1719 314.07 17.7969 313.227 17.375C312.398 16.9531 311.266 16.7422 309.828 16.7422C308.375 16.7422 307.258 17.0156 306.477 17.5625C305.711 18.0938 305.328 18.9922 305.328 20.2578V29.6562C305.328 30.9219 305.742 31.7969 306.57 32.2812C307.414 32.7656 308.5 33.0078 309.828 33.0078ZM327.922 49.3672L327.453 44.0938C329.031 43.8594 330.391 43.2656 331.531 42.3125C332.688 41.375 333.625 39.9609 334.344 38.0703L334.742 37.0391L325.25 12.8281H331.602L337.859 29.8906L343.156 12.8281H349.508L340.812 37.7188C339.453 41.6094 337.719 44.4297 335.609 46.1797C333.516 47.9453 330.953 49.0078 327.922 49.3672Z" fill="white"/>
<path d="M368.609 38.6094C365.531 38.6094 363.031 38.3125 361.109 37.7188C359.203 37.1094 357.742 36.2656 356.727 35.1875C355.711 34.1094 355.016 32.8438 354.641 31.3906C354.266 29.9375 354.078 28.3594 354.078 26.6562V15.1016C354.078 13.3516 354.258 11.7344 354.617 10.25C354.992 8.75 355.68 7.44531 356.68 6.33594C357.695 5.22656 359.164 4.36719 361.086 3.75781C363.008 3.13281 365.516 2.82031 368.609 2.82031C371.562 2.82031 373.938 3.125 375.734 3.73438C377.547 4.32812 378.922 5.17188 379.859 6.26562C380.797 7.35938 381.43 8.64844 381.758 10.1328C382.086 11.6016 382.25 13.2109 382.25 14.9609V15.3828L375.43 16.1797V14.4219C375.43 12.7969 375.227 11.5469 374.82 10.6719C374.414 9.78125 373.719 9.16406 372.734 8.82031C371.75 8.46094 370.375 8.28125 368.609 8.28125C366.031 8.28125 364.125 8.6875 362.891 9.5C361.656 10.3125 361.039 11.9062 361.039 14.2812V27.3594C361.039 28.9375 361.312 30.1484 361.859 30.9922C362.406 31.8203 363.234 32.3906 364.344 32.7031C365.469 33 366.898 33.1484 368.633 33.1484C370.398 33.1484 371.773 33 372.758 32.7031C373.742 32.3906 374.43 31.8125 374.82 30.9688C375.227 30.1094 375.43 28.8594 375.43 27.2188V26.1172H382.25V26.75C382.25 28.4531 382.094 30.0234 381.781 31.4609C381.469 32.8984 380.852 34.1562 379.93 35.2344C379.008 36.2969 377.641 37.125 375.828 37.7188C374.016 38.3125 371.609 38.6094 368.609 38.6094ZM399.078 38.5391C395.109 38.5391 392.297 37.8047 390.641 36.3359C388.984 34.8672 388.156 32.8828 388.156 30.3828V20.4688C388.156 17.9062 389.109 15.9062 391.016 14.4688C392.938 13.0156 395.625 12.2891 399.078 12.2891C402.516 12.2891 405.195 13.0156 407.117 14.4688C409.039 15.9062 410 17.9062 410 20.4688V30.3828C410 32.0391 409.656 33.4844 408.969 34.7188C408.281 35.9375 407.141 36.8828 405.547 37.5547C403.969 38.2109 401.812 38.5391 399.078 38.5391ZM399.078 34.1094C400.438 34.1094 401.531 33.8594 402.359 33.3594C403.203 32.8438 403.625 31.9453 403.625 30.6641V20.1875C403.625 18.9062 403.227 18.0156 402.43 17.5156C401.633 17 400.516 16.7422 399.078 16.7422C397.703 16.7422 396.602 17 395.773 17.5156C394.945 18.0156 394.531 18.9062 394.531 20.1875V30.6641C394.531 31.9453 394.922 32.8438 395.703 33.3594C396.484 33.8594 397.609 34.1094 399.078 34.1094ZM415.812 30.4062V20.3516C415.812 18.0234 416.633 16.1016 418.273 14.5859C419.93 13.0547 422.594 12.2891 426.266 12.2891C426.984 12.2891 427.758 12.375 428.586 12.5469C429.43 12.7031 430.219 12.9141 430.953 13.1797V2.49219H437.328V38H433.016L432.336 36.5234C431.523 37.1016 430.555 37.5859 429.43 37.9766C428.32 38.3516 427.117 38.5391 425.82 38.5391C422.414 38.5391 419.891 37.8203 418.25 36.3828C416.625 34.9297 415.812 32.9375 415.812 30.4062ZM430.953 33.0547V17.6094C430.531 17.4062 429.953 17.2109 429.219 17.0234C428.5 16.8359 427.695 16.7422 426.805 16.7422C425.352 16.7422 424.219 17 423.406 17.5156C422.594 18.0312 422.188 18.9297 422.188 20.2109V30.5C422.188 31.7812 422.562 32.6953 423.312 33.2422C424.078 33.7891 425.164 34.0625 426.57 34.0625C427.445 34.0625 428.273 33.9688 429.055 33.7812C429.836 33.5938 430.469 33.3516 430.953 33.0547ZM443.891 30.125V20.3047C443.891 17.7422 444.859 15.7656 446.797 14.375C448.75 12.9844 451.359 12.2891 454.625 12.2891C458.5 12.2891 461.25 13.0312 462.875 14.5156C464.516 16 465.336 18.0078 465.336 20.5391V26.6328H450.266V30.7344C450.266 32.2188 450.648 33.1562 451.414 33.5469C452.18 33.9219 453.32 34.1094 454.836 34.1094C456.648 34.1094 457.859 33.8594 458.469 33.3594C459.094 32.8438 459.406 31.8125 459.406 30.2656H465.312C465.312 33.375 464.438 35.5312 462.688 36.7344C460.938 37.9375 458.281 38.5391 454.719 38.5391C452.672 38.5391 450.828 38.2891 449.188 37.7891C447.547 37.2734 446.25 36.4062 445.297 35.1875C444.359 33.9688 443.891 32.2812 443.891 30.125ZM459.312 22.7422V19.7891C459.312 18.8516 459.109 18.1719 458.703 17.75C458.312 17.3125 457.773 17.0391 457.086 16.9297C456.414 16.8047 455.648 16.7422 454.789 16.7422C453.508 16.7422 452.43 16.9375 451.555 17.3281C450.695 17.7031 450.266 18.5625 450.266 19.9062V22.7422H459.312Z" fill="#BCE1AB"/>
</svg>
