<svg width="275" height="29" viewBox="0 0 275 29" fill="none" xmlns="http://www.w3.org/2000/svg">
<path d="M0.176455 0.782763H6.60027V2.92848H3.81484V21.0404H6.60027V23.1861H0.176455V0.782763ZM267.658 21.0404H270.456V2.92848H267.658V0.782763H274.081V23.1861H267.658V21.0404Z" fill="#DF992F"/>
<path d="M9.10582 2.32874H13.3439L18.5416 18.2283L23.5794 2.32874H27.8175L20.8873 22H16.0894L9.10582 2.32874ZM30.0032 7.68636H33.6149V22H30.0032V7.68636ZM29.9765 1.80897H33.6283V5.34074H29.9765V1.80897ZM36.7202 21.187L37.4532 18.7215C38.2173 19.0502 39.017 19.3123 39.8522 19.5078C40.6962 19.6944 41.4692 19.7876 42.1711 19.7876C42.8286 19.7876 43.3173 19.6322 43.6371 19.3212C43.957 19.0013 44.1169 18.566 44.1169 18.0151C44.1169 17.5975 44.0236 17.2732 43.8371 17.0422C43.6594 16.8023 43.3484 16.6113 42.9041 16.4691L39.7589 15.4829C38.6305 15.1275 37.853 14.6033 37.4266 13.9103C37.009 13.2172 36.8002 12.3909 36.8002 11.4314C36.8002 10.0631 37.28 9.04576 38.2395 8.37939C39.208 7.71302 40.443 7.37983 41.9446 7.37983C43.1707 7.37983 44.2102 7.50866 45.0632 7.76633C45.9161 8.02399 46.6003 8.29942 47.1156 8.59263L46.2626 10.845C45.9872 10.6939 45.6229 10.5473 45.1698 10.4052C44.7167 10.263 44.2324 10.1475 43.7171 10.0586C43.2107 9.96091 42.7309 9.91204 42.2777 9.91204C41.5136 9.91204 40.9894 10.0453 40.7051 10.3119C40.4208 10.5784 40.2786 10.9471 40.2786 11.418C40.2786 11.7201 40.3497 11.9867 40.4919 12.2177C40.634 12.4398 40.8873 12.6086 41.2515 12.7241L44.2102 13.657C45.4186 14.0391 46.2582 14.5722 46.7291 15.2563C47.2 15.9405 47.4355 16.8423 47.4355 17.9618C47.4355 19.1701 47.009 20.1964 46.156 21.0404C45.3031 21.8845 44.0192 22.3065 42.3044 22.3065C41.096 22.3065 40.0476 22.2132 39.1591 22.0267C38.2795 21.849 37.4665 21.5691 36.7202 21.187ZM54.9921 22.3065C53.6238 22.3065 52.5399 21.9112 51.7402 21.1204C50.9494 20.3296 50.5541 19.3301 50.5541 18.1217V7.68636H54.1791V17.5353C54.1791 18.0329 54.3035 18.4327 54.5523 18.7348C54.8011 19.028 55.112 19.2412 55.4852 19.3745C55.8584 19.5078 56.2315 19.5744 56.6047 19.5744C57.049 19.5744 57.4888 19.4989 57.9241 19.3478C58.3595 19.1968 58.7193 18.9569 59.0036 18.6282C59.2968 18.2994 59.4435 17.8685 59.4435 17.3354V7.68636H63.0685V22H59.6567L59.5501 20.4274C59.2658 21.0227 58.6838 21.4847 57.8042 21.8134C56.9246 22.1422 55.9872 22.3065 54.9921 22.3065ZM70.8517 22.3065C69.6256 22.3065 68.626 21.9511 67.853 21.2403C67.0889 20.5295 66.7069 19.5833 66.7069 18.4016C66.7069 17.7263 66.8446 17.1266 67.12 16.6024C67.3955 16.0782 67.8975 15.594 68.626 15.1497C69.3546 14.6966 70.3986 14.2568 71.758 13.8303C72.8686 13.4749 73.686 13.1462 74.2102 12.8441C74.7433 12.542 75.0099 12.1422 75.0099 11.6446C75.0099 11.0671 74.8366 10.6362 74.4901 10.3518C74.1525 10.0586 73.5749 9.91204 72.7575 9.91204C71.8513 9.91204 71.2515 10.0897 70.9583 10.4451C70.674 10.8005 70.5319 11.2537 70.5319 11.8045V12.3643H67.1334V11.9378C67.1334 10.5518 67.5954 9.44558 68.5194 8.61928C69.4434 7.79298 70.8828 7.37983 72.8375 7.37983C74.268 7.37983 75.4008 7.57974 76.236 7.97956C77.0712 8.37939 77.6709 8.94358 78.0352 9.67215C78.3995 10.3918 78.5816 11.2448 78.5816 12.231V17.8952C78.5816 18.5438 78.6616 18.9702 78.8215 19.1746C78.9903 19.3701 79.2968 19.4678 79.7411 19.4678L79.5945 22.1066H78.8348C77.8397 22.1066 77.0667 21.9689 76.5159 21.6935C75.965 21.418 75.5607 20.9916 75.3031 20.414C74.921 20.9205 74.3435 21.3647 73.5705 21.7468C72.8064 22.1199 71.9001 22.3065 70.8517 22.3065ZM72.0645 19.8943C72.5088 19.8943 73.0285 19.7699 73.6238 19.5211C74.2191 19.2723 74.6811 18.8903 75.0099 18.3749V14.7499C74.77 14.9454 74.3879 15.163 73.8637 15.4029C73.3395 15.6339 72.7753 15.8605 72.1711 16.0826C71.3804 16.3758 70.8606 16.7001 70.6118 17.0555C70.363 17.4109 70.2387 17.793 70.2387 18.2017C70.2387 18.7792 70.4075 19.2057 70.7451 19.4811C71.0827 19.7566 71.5225 19.8943 72.0645 19.8943ZM83.0463 17.2954V1.80897H86.6713V17.2421C86.6713 18.024 86.8535 18.5926 87.2178 18.948C87.5909 19.2945 88.2618 19.4678 89.2302 19.4678H89.6833L89.4035 22.1599H87.8841C86.2937 22.1599 85.0898 21.8001 84.2724 21.0804C83.455 20.3518 83.0463 19.0902 83.0463 17.2954ZM91.2293 22L97.7064 2.32874H102.957L109.515 22H105.316L104.224 18.255H96.4936L95.3608 22H91.2293ZM97.4266 15.1897H103.317L100.425 5.28743L97.4266 15.1897ZM112.58 7.68636H116.205V8.95247C116.756 8.48156 117.364 8.09951 118.031 7.80631C118.697 7.5131 119.55 7.3665 120.59 7.3665C121.665 7.3665 122.535 7.56641 123.202 7.96624C123.868 8.35717 124.357 8.88139 124.668 9.53887C124.979 10.1964 125.134 10.9294 125.134 11.7379V22H121.509V11.9378C121.509 11.4314 121.376 11.0449 121.109 10.7783C120.852 10.5118 120.527 10.3296 120.136 10.2319C119.754 10.1342 119.372 10.0853 118.99 10.0853C118.555 10.0853 118.124 10.1653 117.698 10.3252C117.271 10.4851 116.916 10.7206 116.631 11.0315C116.347 11.3425 116.205 11.7335 116.205 12.2044V22H112.58V7.68636ZM132.798 22.3065C131.571 22.3065 130.572 21.9511 129.799 21.2403C129.035 20.5295 128.653 19.5833 128.653 18.4016C128.653 17.7263 128.79 17.1266 129.066 16.6024C129.341 16.0782 129.843 15.594 130.572 15.1497C131.3 14.6966 132.344 14.2568 133.704 13.8303C134.814 13.4749 135.632 13.1462 136.156 12.8441C136.689 12.542 136.956 12.1422 136.956 11.6446C136.956 11.0671 136.782 10.6362 136.436 10.3518C136.098 10.0586 135.521 9.91204 134.703 9.91204C133.797 9.91204 133.197 10.0897 132.904 10.4451C132.62 10.8005 132.478 11.2537 132.478 11.8045V12.3643H129.079V11.9378C129.079 10.5518 129.541 9.44558 130.465 8.61928C131.389 7.79298 132.829 7.37983 134.783 7.37983C136.214 7.37983 137.347 7.57974 138.182 7.97956C139.017 8.37939 139.617 8.94358 139.981 9.67215C140.345 10.3918 140.527 11.2448 140.527 12.231V17.8952C140.527 18.5438 140.607 18.9702 140.767 19.1746C140.936 19.3701 141.243 19.4678 141.687 19.4678L141.54 22.1066H140.781C139.786 22.1066 139.013 21.9689 138.462 21.6935C137.911 21.418 137.507 20.9916 137.249 20.414C136.867 20.9205 136.289 21.3647 135.516 21.7468C134.752 22.1199 133.846 22.3065 132.798 22.3065ZM134.01 19.8943C134.455 19.8943 134.974 19.7699 135.57 19.5211C136.165 19.2723 136.627 18.8903 136.956 18.3749V14.7499C136.716 14.9454 136.334 15.163 135.81 15.4029C135.285 15.6339 134.721 15.8605 134.117 16.0826C133.326 16.3758 132.806 16.7001 132.558 17.0555C132.309 17.4109 132.184 17.793 132.184 18.2017C132.184 18.7792 132.353 19.2057 132.691 19.4811C133.029 19.7566 133.468 19.8943 134.01 19.8943ZM144.992 17.2954V1.80897H148.617V17.2421C148.617 18.024 148.799 18.5926 149.164 18.948C149.537 19.2945 150.208 19.4678 151.176 19.4678H151.629L151.349 22.1599H149.83C148.24 22.1599 147.036 21.8001 146.218 21.0804C145.401 20.3518 144.992 19.0902 144.992 17.2954ZM160.105 22.3065C157.849 22.3065 156.249 21.8889 155.308 21.0538C154.366 20.2186 153.895 19.0902 153.895 17.6686V12.0311C153.895 10.574 154.437 9.43669 155.521 8.61928C156.614 7.79298 158.142 7.37983 160.105 7.37983C162.06 7.37983 163.584 7.79298 164.677 8.61928C165.77 9.43669 166.316 10.574 166.316 12.0311V17.6686C166.316 18.6104 166.12 19.4323 165.73 20.1342C165.339 20.8272 164.69 21.3647 163.784 21.7468C162.886 22.1199 161.66 22.3065 160.105 22.3065ZM160.105 19.7876C160.878 19.7876 161.5 19.6455 161.971 19.3612C162.451 19.068 162.691 18.5571 162.691 17.8285V11.8712C162.691 11.1426 162.464 10.6362 162.011 10.3518C161.558 10.0586 160.923 9.91204 160.105 9.91204C159.324 9.91204 158.697 10.0586 158.226 10.3518C157.755 10.6362 157.52 11.1426 157.52 11.8712V17.8285C157.52 18.5571 157.742 19.068 158.186 19.3612C158.63 19.6455 159.27 19.7876 160.105 19.7876ZM175.618 27.8774C174.73 27.8774 173.841 27.8108 172.953 27.6775C172.073 27.5531 171.385 27.3709 170.887 27.1311L171.634 24.6655C172.309 24.8521 172.98 24.9898 173.646 25.0786C174.321 25.1764 174.934 25.2252 175.485 25.2252C176.525 25.2252 177.28 24.9987 177.751 24.5455C178.222 24.1013 178.457 23.3861 178.457 22.3998V20.8272C178.031 21.076 177.52 21.2625 176.925 21.3869C176.329 21.5113 175.756 21.5735 175.205 21.5735C173.482 21.5735 172.118 21.1826 171.114 20.4007C170.119 19.6188 169.621 18.526 169.621 17.1222V11.9911C169.621 11.1737 169.794 10.414 170.141 9.71213C170.487 9.01022 171.061 8.44602 171.86 8.01955C172.66 7.59307 173.73 7.37983 175.072 7.37983C175.863 7.37983 176.618 7.5131 177.338 7.77965C178.057 8.03732 178.639 8.34829 179.084 8.71257L179.39 7.67303H182.082V22.1599C182.082 23.928 181.58 25.323 180.576 26.3447C179.572 27.3665 177.92 27.8774 175.618 27.8774ZM175.805 19.1613C176.418 19.1613 176.951 19.0991 177.404 18.9747C177.857 18.8503 178.208 18.6992 178.457 18.5215V10.9116C178.457 10.725 178.217 10.5118 177.738 10.2719C177.267 10.032 176.622 9.91204 175.805 9.91204C174.979 9.91204 174.343 10.0675 173.899 10.3785C173.464 10.6806 173.246 11.1915 173.246 11.9112V17.2554C173.246 17.9751 173.482 18.4727 173.953 18.7481C174.432 19.0235 175.05 19.1613 175.805 19.1613ZM186.094 28.4638L185.827 25.4651C186.725 25.3319 187.498 24.9942 188.146 24.4522C188.804 23.9191 189.337 23.1151 189.746 22.04L189.972 21.4536L184.575 7.68636H188.186L191.745 17.3887L194.757 7.68636H198.368L193.424 21.8401C192.651 24.0524 191.665 25.6562 190.465 26.6513C189.275 27.6553 187.818 28.2594 186.094 28.4638Z" fill="white"/>
<path d="M209.23 22.3465C207.48 22.3465 206.058 22.1777 204.965 21.8401C203.881 21.4936 203.051 21.0138 202.473 20.4007C201.896 19.7876 201.5 19.068 201.287 18.2417C201.074 17.4154 200.967 16.518 200.967 15.5495V8.97912C200.967 7.98401 201.069 7.06442 201.274 6.22035C201.487 5.36739 201.878 4.6255 202.447 3.99467C203.024 3.36384 203.859 2.87517 204.952 2.52865C206.045 2.17326 207.471 1.99556 209.23 1.99556C210.909 1.99556 212.26 2.16881 213.282 2.51533C214.312 2.85295 215.094 3.33274 215.627 3.95469C216.16 4.57663 216.52 5.30964 216.707 6.15371C216.893 6.98889 216.987 7.90404 216.987 8.89916V9.13905L213.108 9.59218V8.59263C213.108 7.66859 212.993 6.9578 212.762 6.46024C212.531 5.9538 212.136 5.60284 211.576 5.40737C211.016 5.20302 210.234 5.10084 209.23 5.10084C207.764 5.10084 206.68 5.33185 205.978 5.79387C205.276 6.25589 204.925 7.16215 204.925 8.51266V15.9494C204.925 16.8467 205.081 17.5353 205.392 18.0151C205.703 18.486 206.174 18.8103 206.805 18.988C207.444 19.1568 208.257 19.2412 209.244 19.2412C210.248 19.2412 211.029 19.1568 211.589 18.988C212.149 18.8103 212.54 18.4816 212.762 18.0018C212.993 17.5131 213.108 16.8023 213.108 15.8694V15.243H216.987V15.6028C216.987 16.5713 216.898 17.4642 216.72 18.2817C216.543 19.0991 216.192 19.8143 215.667 20.4274C215.143 21.0315 214.366 21.5024 213.335 21.8401C212.304 22.1777 210.936 22.3465 209.23 22.3465ZM226.556 22.3065C224.299 22.3065 222.7 21.8889 221.758 21.0538C220.816 20.2186 220.345 19.0902 220.345 17.6686V12.0311C220.345 10.574 220.887 9.43669 221.971 8.61928C223.064 7.79298 224.592 7.37983 226.556 7.37983C228.511 7.37983 230.034 7.79298 231.127 8.61928C232.22 9.43669 232.766 10.574 232.766 12.0311V17.6686C232.766 18.6104 232.571 19.4323 232.18 20.1342C231.789 20.8272 231.14 21.3647 230.234 21.7468C229.337 22.1199 228.111 22.3065 226.556 22.3065ZM226.556 19.7876C227.329 19.7876 227.951 19.6455 228.422 19.3612C228.901 19.068 229.141 18.5571 229.141 17.8285V11.8712C229.141 11.1426 228.915 10.6362 228.462 10.3518C228.009 10.0586 227.373 9.91204 226.556 9.91204C225.774 9.91204 225.148 10.0586 224.677 10.3518C224.206 10.6362 223.97 11.1426 223.97 11.8712V17.8285C223.97 18.5571 224.192 19.068 224.637 19.3612C225.081 19.6455 225.721 19.7876 226.556 19.7876ZM236.072 17.6819V11.9645C236.072 10.6406 236.538 9.54776 237.471 8.68592C238.413 7.81519 239.928 7.37983 242.016 7.37983C242.424 7.37983 242.864 7.4287 243.335 7.52643C243.815 7.61528 244.264 7.73523 244.681 7.88627V1.80897H248.306V22H245.854L245.467 21.1604C245.005 21.4891 244.455 21.7645 243.815 21.9867C243.184 22.1999 242.5 22.3065 241.762 22.3065C239.826 22.3065 238.391 21.8978 237.458 21.0804C236.534 20.2541 236.072 19.1213 236.072 17.6819ZM244.681 19.1879V10.4052C244.441 10.2896 244.112 10.1786 243.695 10.072C243.286 9.96535 242.829 9.91204 242.322 9.91204C241.496 9.91204 240.852 10.0586 240.39 10.3518C239.928 10.645 239.697 11.1559 239.697 11.8845V17.7352C239.697 18.4638 239.91 18.9836 240.336 19.2945C240.772 19.6055 241.389 19.761 242.189 19.761C242.686 19.761 243.157 19.7077 243.602 19.6011C244.046 19.4944 244.406 19.3567 244.681 19.1879ZM252.038 17.522V11.9378C252.038 10.4807 252.589 9.35673 253.69 8.56597C254.801 7.77521 256.285 7.37983 258.142 7.37983C260.345 7.37983 261.909 7.80187 262.833 8.64593C263.766 9.49 264.232 10.6317 264.232 12.0711V15.5362H255.663V17.8685C255.663 18.7126 255.881 19.2457 256.316 19.4678C256.751 19.681 257.4 19.7876 258.262 19.7876C259.292 19.7876 259.981 19.6455 260.328 19.3612C260.683 19.068 260.861 18.4816 260.861 17.602H264.219C264.219 19.3701 263.722 20.5962 262.726 21.2803C261.731 21.9645 260.221 22.3065 258.195 22.3065C257.031 22.3065 255.983 22.1644 255.05 21.8801C254.117 21.5869 253.379 21.0937 252.837 20.4007C252.304 19.7077 252.038 18.7481 252.038 17.522ZM260.807 13.3239V11.6446C260.807 11.1115 260.692 10.725 260.461 10.4851C260.239 10.2363 259.932 10.0809 259.541 10.0187C259.159 9.94758 258.724 9.91204 258.235 9.91204C257.507 9.91204 256.893 10.0231 256.396 10.2452C255.907 10.4585 255.663 10.9471 255.663 11.7112V13.3239H260.807Z" fill="#BCE1AB"/>
</svg>
